
<svg version="1.0" xmlns="http://www.w3.org/2000/svg" viewBox="0 0 320.000000 320.000000">

<g transform="translate(0,320) scale(0.1,-0.1)" fill="#ffffff" stroke="none">
<path d="M93 3174 c-24 -14 -54 -44 -68 -68 l-25 -43 0 -1463 0 -1463 25 -43
c15 -26 43 -54 69 -69 l43 -25 1463 0 1463 0 43 25 c26 15 54 43 69 69 l25 43
0 1463 0 1463 -25 43 c-15 26 -43 54 -69 69 l-43 25 -1464 0 -1464 0 -42 -26z
m1743 -1077 l231 -402 -233 -3 c-129 -1 -339 -1 -468 0 l-233 3 231 402 c127
221 233 402 236 402 3 0 109 -181 236 -402z m-482 -925 c125 -217 230 -400
233 -408 4 -12 -63 -14 -461 -14 -256 0 -466 3 -466 7 0 7 464 813 466 810 1
-1 104 -179 228 -395z m950 0 c125 -217 230 -400 233 -408 4 -12 -63 -14 -461
-14 -256 0 -466 3 -466 6 0 7 464 814 466 811 1 -1 104 -179 228 -395z"/>
</g>
</svg>
